<svg xmlns="http://www.w3.org/2000/svg" class="App-logo" width="2590.733" height="483.521" viewBox="0 0 685.465 127.932">
    <path class="App-logo-crown" d="M150.888 0c13.23 16.404 15.875 16.404 34.396 3.175l-7.937 26.458s-16.959-7.79-26.457-7.79c-9.5 0-26.46 7.79-26.46 7.79l-7.938-26.458c18.521 13.23 21.167 13.23 34.396-3.175z" fill="#ffda24"/>
    <g aria-label="beOITraining" style="line-height:1.25" font-weight="400" font-size="105.833" font-family="sans-serif" letter-spacing="0" word-spacing="0" fill="#ffda24" stroke-width=".265">
        <path d="M50.797 76.773q0 7.234-2.067 13.022-2.016 5.788-5.478 9.715-3.669 4.083-8.061 6.15-4.393 2.015-9.664 2.015-4.91 0-8.578-1.189-3.67-1.136-7.235-3.1l-.62 2.687H0V25.665h9.715v28.732q4.083-3.36 8.682-5.478 4.599-2.17 10.335-2.17 10.232 0 16.123 7.854 5.943 7.855 5.943 22.17zm-10.025.258q0-10.335-3.41-15.658-3.412-5.374-11.008-5.374-4.237 0-8.578 1.86-4.341 1.809-8.062 4.703v33.072q4.134 1.86 7.08 2.584 2.997.724 6.77.724 8.061 0 12.608-5.271 4.6-5.323 4.6-16.64zM111.255 78.22h-42.53q0 5.322 1.603 9.301 1.602 3.928 4.392 6.46 2.687 2.48 6.356 3.72 3.721 1.24 8.165 1.24 5.891 0 11.834-2.325 5.995-2.377 8.527-4.65h.516v10.593q-4.909 2.067-10.025 3.462-5.116 1.396-10.748 1.396-14.366 0-22.428-7.752-8.061-7.803-8.061-22.117 0-14.16 7.7-22.48 7.75-8.32 20.36-8.32 11.679 0 17.983 6.822 6.356 6.821 6.356 19.379zm-9.456-7.442q-.052-7.648-3.876-11.834-3.773-4.186-11.524-4.186-7.803 0-12.454 4.6-4.6 4.599-5.22 11.42z" fill="#000"/>
        <path d="M177.329 37.964q4.702 5.167 7.183 12.66 2.532 7.493 2.532 17.002 0 9.508-2.584 17.053-2.532 7.493-7.131 12.506-4.754 5.219-11.266 7.854-6.46 2.636-14.779 2.636-8.113 0-14.78-2.687-6.614-2.687-11.265-7.803-4.65-5.116-7.183-12.558-2.48-7.441-2.48-17.001 0-9.405 2.48-16.847 2.48-7.493 7.235-12.815 4.547-5.065 11.265-7.752 6.77-2.687 14.728-2.687 8.268 0 14.831 2.739 6.615 2.687 11.214 7.7zm-.93 29.662q0-14.986-6.718-23.1-6.718-8.164-18.345-8.164-11.73 0-18.449 8.165-6.666 8.113-6.666 23.099 0 15.141 6.821 23.203 6.822 8.01 18.294 8.01 11.472 0 18.241-8.01 6.822-8.062 6.822-23.203z"/>
        <path d="M230.4 106.073h-30.385v-7.855h10.077V36.982h-10.077v-7.855H230.4v7.855h-10.076v61.236H230.4z" fill="#ef3340"/>
        <path d="M302.799 38.222h-27.492v67.851h-10.232v-67.85h-27.492v-9.096H302.8zM338.145 58.944h-.516q-2.17-.517-4.238-.723-2.015-.259-4.806-.259-4.496 0-8.681 2.016-4.186 1.963-8.062 5.116v40.979h-9.715V48.351h9.715v8.526q5.788-4.65 10.18-6.563 4.445-1.963 9.044-1.963 2.532 0 3.669.155 1.137.103 3.41.465zM390.39 106.073h-9.663v-6.15q-1.292.879-3.514 2.481-2.17 1.55-4.238 2.48-2.429 1.189-5.58 1.964-3.153.827-7.39.827-7.804 0-13.23-5.168-5.426-5.167-5.426-13.177 0-6.563 2.79-10.594 2.843-4.082 8.062-6.408 5.271-2.325 12.661-3.152t15.865-1.24v-1.499q0-3.307-1.189-5.477-1.137-2.17-3.307-3.411-2.067-1.189-4.961-1.602-2.894-.413-6.046-.413-3.824 0-8.527 1.033-4.702.982-9.715 2.894h-.517v-9.87q2.843-.775 8.217-1.705 5.374-.93 10.593-.93 6.098 0 10.594 1.033 4.548.982 7.855 3.41 3.256 2.378 4.96 6.15 1.706 3.772 1.706 9.353zm-9.663-14.211V75.791q-4.444.258-10.49.775-5.995.517-9.509 1.498-4.186 1.189-6.77 3.721-2.583 2.48-2.583 6.873 0 4.961 2.997 7.493 2.997 2.48 9.146 2.48 5.116 0 9.354-1.963 4.237-2.015 7.855-4.806zM419.639 38.687h-10.955V28.61h10.955zm-.62 67.386h-9.715V48.351h9.715zM486.611 106.073h-9.715V73.207q0-3.98-.465-7.441-.465-3.514-1.705-5.478-1.292-2.17-3.72-3.204-2.43-1.085-6.305-1.085-3.98 0-8.32 1.963-4.341 1.964-8.32 5.013v43.098h-9.715V48.351h9.715v6.407q4.547-3.772 9.405-5.89 4.858-2.12 9.973-2.12 9.354 0 14.263 5.633 4.91 5.633 4.91 16.227zM515.757 38.687H504.8V28.61h10.956zm-.62 67.386h-9.715V48.351h9.715zM582.73 106.073h-9.716V73.207q0-3.98-.465-7.441-.465-3.514-1.705-5.478-1.292-2.17-3.721-3.204-2.429-1.085-6.305-1.085-3.979 0-8.32 1.963-4.34 1.964-8.32 5.013v43.098h-9.714V48.351h9.715v6.407q4.547-3.772 9.405-5.89 4.857-2.12 9.973-2.12 9.354 0 14.263 5.633 4.91 5.633 4.91 16.227zM648.255 99.51q0 14.676-6.667 21.55-6.666 6.872-20.515 6.872-4.6 0-8.992-.672-4.34-.62-8.578-1.808v-9.922h.517q2.377.93 7.545 2.274 5.167 1.395 10.335 1.395 4.96 0 8.216-1.189 3.256-1.188 5.065-3.307 1.808-2.015 2.583-4.858.776-2.842.776-6.356v-5.27q-4.393 3.513-8.424 5.27-3.979 1.706-10.18 1.706-10.335 0-16.433-7.442-6.046-7.493-6.046-21.084 0-7.441 2.067-12.816 2.119-5.426 5.736-9.353 3.359-3.669 8.165-5.684 4.806-2.067 9.56-2.067 5.013 0 8.372 1.033 3.41.982 7.183 3.05l.62-2.481h9.095zm-9.715-9.302v-31.47q-3.876-1.757-7.235-2.48-3.307-.776-6.615-.776-8.01 0-12.609 5.374-4.599 5.375-4.599 15.607 0 9.715 3.41 14.727 3.411 5.013 11.318 5.013 4.237 0 8.475-1.602 4.289-1.654 7.855-4.393z" fill="#fff"/>
    </g>
</svg>
